<svg width="192" height="192" viewBox="0 0 192 192" fill="none" xmlns="http://www.w3.org/2000/svg">
<path fill-rule="evenodd" clip-rule="evenodd" d="M83.7012 34.6963C80.1742 36.4984 75.4094 41.7563 74.7611 66.4921C74.73 67.6688 74.7114 68.8551 74.6959 70.0479C71.0138 55.1542 67.7752 47.5075 63.1935 45.9633C62.0147 45.5668 59.6882 45.2347 57.3151 47.4591C50.779 53.5875 51.3591 69.3226 54.1541 89.3001C50.7573 82.8816 46.9232 77.7107 43.0704 76.6727C41.0045 76.115 39.0191 76.6469 37.4805 78.1685C35.2036 80.4283 34.0155 85.4993 34 92.2272V92.5206C34.0124 96.7856 34.487 101.699 35.4456 106.976C37.5984 118.826 43.0611 137.16 56.8374 157.189L58.773 160L64.183 155.98L62.2474 153.166C49.3459 134.413 44.1623 117.308 42.084 106.257C39.7884 94.0293 40.7377 85.8056 41.8265 83.5715C42.9029 84.2807 45.3659 86.8307 48.8123 93.5329C52.3859 100.49 56.0898 110.113 59.2291 120.619L65.6813 119.01C65.3091 116.741 64.9213 114.455 64.5367 112.163C62.2691 98.6747 59.9239 84.7256 59.1298 73.536C58.1681 59.9995 59.8091 54.8125 61.4843 52.8911C62.3187 53.8486 64.3009 57.0272 67.1052 67.3045C69.4659 75.9409 71.659 86.6373 73.7808 96.9855C74.9441 102.663 76.0453 108.027 77.1186 112.795L83.664 111.618C82.8326 103.997 80.9466 84.3678 81.4088 66.6759C81.8431 50.1123 84.2937 42.6235 86.3907 41.0568C87.0886 41.8047 89.0616 44.8576 91.2609 56.7532C92.9826 66.0634 94.3102 77.5721 95.5914 88.7037C96.3979 95.7153 97.161 102.337 97.9769 107.966L104.59 107.447C104.59 93.6747 104.696 79.2001 105.958 66.9112C107.733 49.6835 111.049 45.4346 112.647 44.3933C113.093 45.0961 114.002 47.1271 114.865 52.6622C115.693 57.9427 116.276 64.9221 116.89 72.3077C117.945 84.9642 119.139 99.3066 121.984 111.386C125.455 126.141 130.809 133.62 137.885 133.62H137.922C150.433 133.578 160.701 109.01 164.231 93.5393L165 90.1737L158.529 88.5812L157.76 91.9403C155.765 100.677 152.393 109.548 148.506 116.273C144.737 122.795 140.77 126.699 137.897 126.708H137.888C134.476 126.708 130.946 120.367 128.442 109.742C125.722 98.1847 124.552 84.1195 123.519 71.7146C121.798 51.0794 120.749 41.031 115.702 38.0684C113.971 37.0497 111.936 37.0335 109.979 38.0329C104.128 41.0084 101.011 50.4282 99.4286 65.6604C96.9501 48.2554 94.2265 37.5364 89.3159 34.764C88.4101 34.2547 87.4485 34 86.4713 34C85.5438 34 84.607 34.2321 83.7012 34.6963Z" fill="url(#paint0_linear_2060_6749)"/>
<path fill-rule="evenodd" clip-rule="evenodd" d="M83.7012 34.6963C80.1742 36.4984 75.4094 41.7563 74.7611 66.4921C74.73 67.6688 74.7114 68.8551 74.6959 70.0479C71.0138 55.1542 67.7752 47.5075 63.1935 45.9633C62.0147 45.5668 59.6882 45.2347 57.3151 47.4591C50.779 53.5875 51.3591 69.3226 54.1541 89.3001C50.7573 82.8816 46.9232 77.7107 43.0704 76.6727C41.0045 76.115 39.0191 76.6469 37.4805 78.1685C35.2036 80.4283 34.0155 85.4993 34 92.2272V92.5206C34.0124 96.7856 34.487 101.699 35.4456 106.976C37.5984 118.826 43.0611 137.16 56.8374 157.189L58.773 160L64.183 155.98L62.2474 153.166C49.3459 134.413 44.1623 117.308 42.084 106.257C39.7884 94.0293 40.7377 85.8056 41.8265 83.5715C42.9029 84.2807 45.3659 86.8307 48.8123 93.5329C52.3859 100.49 56.0898 110.113 59.2291 120.619L65.6813 119.01C65.3091 116.741 64.9213 114.455 64.5367 112.163C62.2691 98.6747 59.9239 84.7256 59.1298 73.536C58.1681 59.9995 59.8091 54.8125 61.4843 52.8911C62.3187 53.8486 64.3009 57.0272 67.1052 67.3045C69.4659 75.9409 71.659 86.6373 73.7808 96.9855C74.9441 102.663 76.0453 108.027 77.1186 112.795L83.664 111.618C82.8326 103.997 80.9466 84.3678 81.4088 66.6759C81.8431 50.1123 84.2937 42.6235 86.3907 41.0568C87.0886 41.8047 89.0616 44.8576 91.2609 56.7532C92.9826 66.0634 94.3102 77.5721 95.5914 88.7037C96.3979 95.7153 97.161 102.337 97.9769 107.966L104.59 107.447C104.59 93.6747 104.696 79.2001 105.958 66.9112C107.733 49.6835 111.049 45.4346 112.647 44.3933C113.093 45.0961 114.002 47.1271 114.865 52.6622C115.693 57.9427 116.276 64.9221 116.89 72.3077C117.945 84.9642 119.139 99.3066 121.984 111.386C125.455 126.141 130.809 133.62 137.885 133.62H137.922C150.433 133.578 160.701 109.01 164.231 93.5393L165 90.1737L158.529 88.5812L157.76 91.9403C155.765 100.677 152.393 109.548 148.506 116.273C144.737 122.795 140.77 126.699 137.897 126.708H137.888C134.476 126.708 130.946 120.367 128.442 109.742C125.722 98.1847 124.552 84.1195 123.519 71.7146C121.798 51.0794 120.749 41.031 115.702 38.0684C113.971 37.0497 111.936 37.0335 109.979 38.0329C104.128 41.0084 101.011 50.4282 99.4286 65.6604C96.9501 48.2554 94.2265 37.5364 89.3159 34.764C88.4101 34.2547 87.4485 34 86.4713 34C85.5438 34 84.607 34.2321 83.7012 34.6963Z" fill="url(#paint1_linear_2060_6749)"/>
<defs>
<linearGradient id="paint0_linear_2060_6749" x1="99" y1="62" x2="51.9282" y2="154.523" gradientUnits="userSpaceOnUse">
<stop stop-color="#00A86B"/>
<stop offset="1" stop-color="#6F00FF"/>
</linearGradient>
<linearGradient id="paint1_linear_2060_6749" x1="99" y1="62" x2="51.9282" y2="154.523" gradientUnits="userSpaceOnUse">
<stop stop-color="#00A86B"/>
<stop offset="1" stop-color="#6F00FF"/>
</linearGradient>
</defs>
</svg>
